<?xml version="1.0" encoding="utf-8"?>
<!-- Generator: Adobe Illustrator 16.0.0, SVG Export Plug-In . SVG Version: 6.00 Build 0)  -->
<!DOCTYPE svg PUBLIC "-//W3C//DTD SVG 1.1//EN" "http://www.w3.org/Graphics/SVG/1.1/DTD/svg11.dtd">
<svg version="1.1" id="图层_1" xmlns="http://www.w3.org/2000/svg" xmlns:xlink="http://www.w3.org/1999/xlink" x="0px" y="0px"
	 width="595.28px" height="131.579px" viewBox="0 0 595.28 131.579" enable-background="new 0 0 595.28 131.579"
	 xml:space="preserve">
<g>
	<defs>
		<rect id="SVGID_1_" x="8.875" y="16.384" width="578.389" height="88.181"/>
	</defs>
	<clipPath id="SVGID_2_">
		<use xlink:href="#SVGID_1_"  overflow="visible"/>
	</clipPath>
	<path clip-path="url(#SVGID_2_)" fill-rule="evenodd" clip-rule="evenodd" fill="#121617" d="M28.498,92.447
		c-0.823-0.163-1.812-0.649-2.634-1.299c-7.59-7.307,2.144-15.764,13.191-20.643V56.69c2.639,1.465,3.963,1.627,4.129,1.952
		l8.576-8.45l-2.805-7.151c24.912-8.612,34.978-11.871,55.266-15.28l-3.627-3.414l6.1-3.409c13.528,4.55,26.399,5.682,24.085,17.063
		c0.664-7.638-8.904-10.564-23.753-14.79l-2.804,1.786l5.443,4.391c-24.251,4.225-39.259,8.938-57.081,15.114l2.472,6.174
		l-8.9,8.783c1.48,0.324,16.985,5.689,33.152-5.69c0.166,0,0.332-0.158,0.332-0.329c-0.491-0.808-1.48-1.624-2.805-2.764
		c4.62,0.332,7.756,4.557,7.1,8.783h-2.147c0.332-1.303,0-2.926-0.657-3.901c-12.38,9.1-27.056,10.398-39.436,6.174v10.73
		c-5.938,2.11-16.823,8.605-16.657,14.952C25.365,90.499,27.011,91.635,28.498,92.447"/>
	<path clip-path="url(#SVGID_2_)" fill-rule="evenodd" clip-rule="evenodd" fill="#E9763A" d="M79.31,89.686
		c-13.528,6.827-26.398,12.192-46.188,13.004C7.38,102.204,3.262,85.14,15.465,67.258c11.55-18.048,29.86-34.137,59.063-44.376
		c8.41-2.922,20.956-6.339,32.827-6.498c17.321-0.166,33.985,5.199,32.997,21.613c-0.661,12.524-18.971,30.236-28.539,43.077
		c-4.125,5.528-4.782,9.1,2.14,8.775c25.572-1.623,48.668-10.406,70.115-19.506C169.55,80.1,94.484,117.156,94.159,91.797
		c0.159-3.085,1.649-6.495,3.959-10.074c2.472-3.579,5.775-7.472,9.236-11.214c5.118-5.849,17.819-19.665,21.945-28.122
		c7.258-15.764-8.908-16.579-22.602-21.454l-6.107,3.413l3.627,3.41c-20.292,3.417-30.35,6.664-55.266,15.28l2.812,7.151
		l-8.575,8.454c-0.17-0.325-1.491-0.491-4.129-1.948v13.815c-11.056,4.875-20.79,13.332-13.203,20.646
		c0.827,0.643,1.815,1.129,2.646,1.3C42.188,100.092,79.31,89.686,79.31,89.686"/>
	<path clip-path="url(#SVGID_2_)" fill="#E9763A" d="M456.148,41.716v-4.609l16.649-0.022v14.568
		c-2.554,2.041-5.195,3.568-7.911,4.594c-2.716,1.029-5.498,1.542-8.354,1.542c-3.868,0-7.365-0.823-10.525-2.479
		c-3.144-1.646-5.527-4.041-7.144-7.162c-1.594-3.129-2.406-6.62-2.406-10.477c0-3.823,0.798-7.391,2.406-10.708
		c1.595-3.31,3.89-5.771,6.893-7.377c2.997-1.608,6.458-2.409,10.362-2.409c2.849,0,5.417,0.454,7.712,1.376
		c2.288,0.922,4.096,2.199,5.395,3.845c1.307,1.643,2.303,3.786,2.982,6.432l-4.694,1.284c-0.59-2-1.328-3.572-2.199-4.715
		c-0.871-1.141-2.125-2.056-3.749-2.749c-1.623-0.679-3.432-1.03-5.417-1.03c-2.368,0-4.428,0.365-6.155,1.088
		c-1.741,0.719-3.136,1.671-4.191,2.849c-1.063,1.181-1.889,2.479-2.48,3.885c-1.003,2.436-1.505,5.063-1.505,7.904
		c0,3.502,0.605,6.432,1.816,8.79c1.195,2.358,2.951,4.11,5.254,5.251c2.31,1.144,4.753,1.715,7.351,1.715
		c2.243,0,4.442-0.435,6.583-1.298c2.14-0.867,3.764-1.79,4.878-2.771v-7.317H456.148z"/>
	<path clip-path="url(#SVGID_2_)" fill="#E9763A" d="M481.049,57.122V28.668h4.34v4.313c1.106-2.014,2.125-3.347,3.063-3.996
		c0.938-0.643,1.971-0.959,3.1-0.959c1.624,0,3.27,0.513,4.952,1.55l-1.653,4.479c-1.181-0.701-2.361-1.047-3.542-1.047
		c-1.056,0-2,0.317-2.842,0.952c-0.834,0.635-1.439,1.509-1.794,2.638c-0.531,1.712-0.804,3.587-0.804,5.627v14.896H481.049z"/>
	<path clip-path="url(#SVGID_2_)" fill="#E9763A" d="M498.437,42.893c0-5.266,1.461-9.174,4.398-11.705
		c2.436-2.107,5.417-3.166,8.945-3.166c3.903,0,7.099,1.284,9.586,3.845c2.479,2.564,3.728,6.107,3.728,10.627
		c0,3.657-0.554,6.539-1.646,8.638c-1.107,2.1-2.702,3.734-4.805,4.89c-2.096,1.162-4.384,1.746-6.863,1.746
		c-3.985,0-7.204-1.277-9.661-3.831C499.662,51.38,498.437,47.701,498.437,42.893 M503.389,42.893c0,3.646,0.79,6.373,2.384,8.185
		c1.594,1.815,3.594,2.723,6.008,2.723c2.391,0,4.384-0.915,5.963-2.738c1.594-1.819,2.391-4.594,2.391-8.325
		c0-3.524-0.797-6.192-2.391-8.004c-1.609-1.808-3.594-2.712-5.963-2.712c-2.414,0-4.414,0.896-6.008,2.705
		C504.179,36.524,503.389,39.251,503.389,42.893"/>
	<path clip-path="url(#SVGID_2_)" fill="#E9763A" d="M550.164,57.122v-4.181c-2.214,3.214-5.218,4.823-9.026,4.823
		c-1.683,0-3.247-0.317-4.709-0.967c-1.453-0.642-2.538-1.454-3.232-2.421c-0.708-0.974-1.21-2.166-1.491-3.58
		c-0.198-0.944-0.294-2.442-0.294-4.498V28.668h4.818v15.779c0,2.517,0.096,4.217,0.296,5.096c0.31,1.262,0.952,2.258,1.934,2.985
		c0.981,0.723,2.192,1.088,3.639,1.088s2.804-0.373,4.073-1.122c1.27-0.738,2.169-1.746,2.694-3.022
		c0.531-1.276,0.789-3.129,0.789-5.561V28.668h4.826v28.454H550.164z"/>
	<path clip-path="url(#SVGID_2_)" fill="#E9763A" d="M562.569,68.026V28.668h4.398v3.693c1.034-1.442,2.2-2.531,3.499-3.247
		c1.299-0.727,2.893-1.089,4.737-1.089c2.436,0,4.583,0.627,6.436,1.875c1.86,1.255,3.262,3.015,4.206,5.288
		c0.945,2.284,1.425,4.775,1.425,7.491c0,2.915-0.523,5.531-1.572,7.867c-1.048,2.325-2.561,4.119-4.546,5.358
		c-2,1.24-4.089,1.86-6.287,1.86c-1.609,0-3.049-0.343-4.325-1.015c-1.276-0.679-2.332-1.542-3.151-2.575v13.852H562.569z
		 M566.938,43.055c0,3.668,0.738,6.373,2.214,8.119c1.483,1.752,3.284,2.627,5.388,2.627c2.14,0,3.978-0.904,5.506-2.72
		c1.527-1.812,2.302-4.624,2.302-8.424c0-3.627-0.752-6.343-2.243-8.147c-1.491-1.808-3.276-2.705-5.351-2.705
		c-2.06,0-3.866,0.959-5.447,2.878C567.728,36.602,566.938,39.398,566.938,43.055"/>
	
		<rect x="211.558" y="17.539" clip-path="url(#SVGID_2_)" fill-rule="evenodd" clip-rule="evenodd" fill="#E9763A" width="12.764" height="39.734"/>
	
		<rect x="231.886" y="29.509" clip-path="url(#SVGID_2_)" fill-rule="evenodd" clip-rule="evenodd" fill="#E9763A" width="12.767" height="27.764"/>
	
		<rect x="231.886" y="17.539" clip-path="url(#SVGID_2_)" fill-rule="evenodd" clip-rule="evenodd" fill="#E9763A" width="12.767" height="8.291"/>
	<path clip-path="url(#SVGID_2_)" fill-rule="evenodd" clip-rule="evenodd" fill="#E9763A" d="M275.909,28.69
		c-4.377,0-8.428,1.912-11.24,4.941V17.535h-12.764v32.79v3.993v0.391c0,1.845-0.399,2.568-0.399,2.568h12.764
		c0,0,0.399-0.724,0.399-2.568v-0.391v-1.166c2.812,3.033,6.863,4.944,11.24,4.944c8.114,0,14.697-4.605,14.697-14.708
		C290.606,34.517,284.022,28.69,275.909,28.69 M271.134,51.436c-4.303,0-6.465-3.535-6.465-7.904c0-4.37,2.147-7.797,6.465-7.904
		c3.701-0.1,6.701,3.535,6.701,7.904C277.834,47.901,274.835,51.436,271.134,51.436"/>
	<path clip-path="url(#SVGID_2_)" fill-rule="evenodd" clip-rule="evenodd" fill="#E9763A" d="M361.935,28.69
		c-4.384,0-8.428,1.912-11.247,4.941V17.535h-12.761v32.79v3.993v0.391c0,1.845-0.398,2.568-0.398,2.568h12.76
		c0,0,0.399-0.724,0.399-2.568v-0.391v-1.166c2.819,3.033,6.863,4.944,11.247,4.944c8.111,0,14.693-4.605,14.693-14.708
		C376.628,34.517,370.046,28.69,361.935,28.69 M357.152,51.436c-4.296,0-6.465-3.535-6.465-7.904c0-4.37,2.154-7.797,6.465-7.904
		c3.704-0.1,6.7,3.535,6.7,7.904C363.853,47.901,360.856,51.436,357.152,51.436"/>
	<path clip-path="url(#SVGID_2_)" fill-rule="evenodd" clip-rule="evenodd" fill="#E9763A" d="M330.834,54.712v-2.236v-2.147v-9.115
		c0-5.077-0.574-12.424-17.025-12.424c-18.339,0-17.118,9.329-17.118,9.329h11.605c0,0-0.015-3.1,5.313-3.1
		c5.868,0,5.247,5.056,5.247,5.056s-24.221-2.034-24.221,9.454c0,7.292,7.144,8.568,12.576,8.568c8.458,0,11.402-4.284,11.646-4.661
		v1.277c0,1.845,0.406,2.568,0.406,2.568h11.971C331.233,57.28,330.834,56.557,330.834,54.712 M318.466,46.86
		c0,4.003-4.022,4.926-5.83,4.926c-1.55,0-4.989,0.063-4.989-2.827c0-3.602,5.608-3.469,7.151-3.469h3.668V46.86z"/>
	<path clip-path="url(#SVGID_2_)" fill-rule="evenodd" clip-rule="evenodd" fill="#E9763A" d="M416.894,54.712v-2.236v-2.147v-9.115
		c0-5.077-0.582-12.424-17.026-12.424c-18.346,0-17.121,9.329-17.121,9.329h11.617c0,0-0.031-3.1,5.298-3.1
		c5.875,0,5.255,5.056,5.255,5.056s-24.222-2.034-24.222,9.454c0,7.292,7.145,8.568,12.576,8.568c8.458,0,11.402-4.284,11.646-4.661
		v1.277c0,1.845,0.398,2.568,0.398,2.568h11.978C417.292,57.28,416.894,56.557,416.894,54.712 M404.518,46.86
		c0,4.003-4.016,4.926-5.83,4.926c-1.542,0-4.989,0.063-4.989-2.827c0-3.602,5.616-3.469,7.158-3.469h3.661V46.86z"/>
	<path clip-path="url(#SVGID_2_)" fill="#E9763A" d="M175.27,41.447l6.562-14.255l6.561,14.255H175.27z M209.535,57.277
		l-19.837-39.734h-14.69l-20.616,39.734H168l3.251-7.074h20.509l3.244,7.074H209.535z"/>
	<path clip-path="url(#SVGID_2_)" fill="#E9763A" d="M211.735,70.539h11.826v9.76c0,1.609-2.292,3.159-2.292,3.159
		s2.292,1.344,2.292,2.768v7.949c0,1.18-2.638,3.837-3.771,3.837h-3.195v1.728c0,2.509-2.358,4.546-4.86,4.546V70.539z
		 M216.775,93.967h1.841v-9.801h-1.306c0,0,1.306-1.122,1.306-1.934v-7.646h-1.841V93.967z"/>
	<path clip-path="url(#SVGID_2_)" fill="#E9763A" d="M245.547,70.539h-3.536h-2.063h-15.576v4.049h14.192v29.608h0.06
		c2.774,0,5.025-2.251,5.025-5.019V74.542C245.229,74.123,245.547,70.539,245.547,70.539"/>
	<path clip-path="url(#SVGID_2_)" fill="#E9763A" d="M229.34,97.953h-3.93V77.354h12.063v11.949v2.405
		c0,3.883-3.871,6.244-5.494,6.244H229.34z M232.591,81.111h-2.472v12.96h2.472V81.111z"/>
	<path clip-path="url(#SVGID_2_)" fill="#E9763A" d="M267.55,100.152v-2.775h10.218c0,0,1.351-0.886,2.033-1.793
		c0.687-0.901,0.989-2.266,0.989-2.266h-13.24v-2.45h1.458h2.299h3.764c1.683,0,5.72-2.746,5.72-4.931v-2.185v-2.021v-7.144v-4.049
		h-5.72h-7.521h-5.719h-7.303h-5.719v4.049v12.229v3.83v0.222h13.022v2.45h-13.303v4.059h13.303v2.775h-13.273v4.044h13.273h5.719
		h11.554c0,0,0.871-0.604,1.664-1.786c0.734-1.092,1.169-2.258,1.169-2.258H267.55z M275.071,74.587v9.165v3.063h-3.764h-3.757
		v-4.199h3.757l3.088-4.045h-6.845v-3.984H275.071z M261.831,78.572h-7.295v-3.984h7.295V78.572z M254.528,82.617h7.295v4.199
		h-7.295V82.617z"/>
	<path clip-path="url(#SVGID_2_)" fill="#E9763A" d="M291.122,100.152v-9.587h13.694h2.454h4.649c1.793,0,5.453-2.931,5.453-5.247
		v-2.34v-2.154v-5.941v-1.819v-2.524h-13.125h-5.72h-7.406h-5.73v4.344v25.27h0.07c-0.015,0.118-0.022,0.251-0.022,0.383
		c0,2.022,1.631,3.661,3.649,3.661c0.096,0,0.196-0.007,0.288-0.015v0.015h25.856c0,0,0.878-0.604,1.668-1.786
		c0.738-1.092,1.181-2.258,1.181-2.258H291.122z M311.277,74.882v8.096v3.262h-4.007h-3.022V74.882H311.277z M298.528,86.24h-7.406
		V74.882h7.406V86.24z"/>
	<path clip-path="url(#SVGID_2_)" fill="#E9763A" d="M328.06,100.152v-9.587h13.697h2.451h4.656c1.794,0,5.454-2.931,5.454-5.247
		v-2.34v-2.154v-5.941v-1.819v-2.524h-13.13h-5.719h-7.41h-5.72v4.344v25.27h0.06c-0.015,0.118-0.022,0.251-0.022,0.383
		c0,2.022,1.639,3.661,3.66,3.661c0.089,0,0.192-0.007,0.28-0.015v0.015h25.867c0,0,0.864-0.604,1.661-1.786
		c0.737-1.092,1.174-2.258,1.174-2.258H328.06z M348.215,74.882v8.096v3.262h-4.007h-3.02V74.882H348.215z M335.47,86.24h-7.41
		V74.882h7.41V86.24z"/>
	<path clip-path="url(#SVGID_2_)" fill="#E9763A" d="M378.26,92.993V91.79h-2.273v1.203h-17.181v1.86h17.181v9.712
		c0,0,2.273-0.827,2.273-2.981v-6.73h11.542c2.147,0,2.981-1.86,2.981-1.86H378.26z"/>
	<path clip-path="url(#SVGID_2_)" fill="#E9763A" d="M393.02,87.169h-14.76v-3.166h11.534c2.155,0,2.989-1.867,2.989-1.867H378.26
		v-3.203h11.534c2.155,0,2.989-1.866,2.989-1.866H378.26v-3.081h11.534c2.155,0,2.989-1.867,2.989-1.867h-14.14l0.899-1.58h-2.649
		l-0.907,1.58h-9.483c0.494-0.676,1.158-1.58,1.158-1.58h-2.656l-6.059,8.151h2.648v11.004h2.288h0.007c0,0,1.676-0.657,3.491-0.657
		h0.243h22.413h0.192c0.088,0,0.17-0.015,0.266-0.029C392.311,88.771,393.02,87.169,393.02,87.169 M375.986,82.136h-12.104v-1.764
		l0.007-0.074v-1.365h12.097V82.136z M365.145,73.986h10.842v3.081H363.89v-1.373C363.89,75.694,364.584,74.734,365.145,73.986
		 M363.883,84.003h12.104v3.166h-12.104V84.003z"/>
	<path clip-path="url(#SVGID_2_)" fill="#E9763A" d="M365.381,97.945h2.753c0,0-4.487,6.62-6.317,6.62h-2.021
		c0,0,2.849-2.886,4.324-4.945C365.491,97.702,365.381,97.945,365.381,97.945"/>
	<path clip-path="url(#SVGID_2_)" fill="#E9763A" d="M387.772,97.945h-2.753c0,0,4.486,6.62,6.316,6.62h2.022
		c0,0-2.849-2.886-4.324-4.945C387.669,97.702,387.772,97.945,387.772,97.945"/>
	<path clip-path="url(#SVGID_2_)" fill="#E9763A" d="M428.37,104.565h-28.783V70.539h31.344v31.473
		C430.931,103.42,429.786,104.565,428.37,104.565 M428.813,101.214V72.679h-27.041v30.011h25.55
		C428.141,102.69,428.813,102.026,428.813,101.214"/>
	<path clip-path="url(#SVGID_2_)" fill="#E9763A" d="M426.393,81.007h-2.348h-0.28v-4.222l-2.185,0.016v4.206h-16.495v2.067h15.624
		h0.871v12.959c0,0.28-0.221,0.516-0.501,0.516h-2.79v1.979h3.999c0.813,0,1.477-0.664,1.477-1.483v-13.97h0.28v-0.016
		C426.038,82.889,426.393,81.007,426.393,81.007"/>
	<path clip-path="url(#SVGID_2_)" fill="#E9763A" d="M405.543,98.099l7.344-12.914h2.406l-6.34,11.173
		C407.669,98.528,405.543,98.099,405.543,98.099"/>
	<path clip-path="url(#SVGID_2_)" fill="#E9763A" d="M160.535,91.163c1.004,0,1.997,0.259,2.956,0.767
		c0.96,0.518,1.708,1.27,2.244,2.229c0.536,0.967,0.808,1.971,0.808,3.012c0,1.032-0.262,2.036-0.793,2.996
		c-0.528,0.952-1.27,1.697-2.222,2.222c-0.952,0.523-1.948,0.789-2.993,0.789s-2.041-0.266-2.992-0.789
		c-0.952-0.524-1.694-1.27-2.229-2.222c-0.528-0.96-0.793-1.964-0.793-2.996c0-1.041,0.273-2.045,0.809-3.012
		c0.535-0.96,1.284-1.712,2.25-2.229C158.539,91.421,159.524,91.163,160.535,91.163 M160.535,92.151
		c-0.845,0-1.671,0.222-2.465,0.65c-0.801,0.435-1.428,1.056-1.882,1.859c-0.45,0.805-0.671,1.638-0.671,2.51
		c0,0.87,0.221,1.697,0.664,2.494c0.439,0.797,1.059,1.417,1.86,1.852c0.793,0.451,1.627,0.672,2.494,0.672
		c0.864,0,1.694-0.221,2.495-0.672c0.793-0.435,1.413-1.055,1.852-1.852c0.443-0.797,0.665-1.624,0.665-2.494
		c0-0.872-0.229-1.705-0.671-2.51c-0.454-0.804-1.074-1.425-1.875-1.859C162.192,92.373,161.373,92.151,160.535,92.151
		 M157.897,100.499v-6.473h2.222c0.763,0,1.31,0.059,1.649,0.178c0.34,0.118,0.613,0.331,0.816,0.627
		c0.203,0.303,0.303,0.612,0.303,0.952c0,0.473-0.167,0.886-0.506,1.232c-0.339,0.354-0.786,0.539-1.347,0.583
		c0.229,0.104,0.417,0.221,0.553,0.347c0.255,0.258,0.58,0.687,0.959,1.284l0.786,1.27h-1.276l-0.575-1.026
		c-0.447-0.797-0.816-1.299-1.089-1.498c-0.188-0.155-0.468-0.229-0.837-0.229h-0.612v2.753H157.897z M158.941,96.861h1.27
		c0.605,0,1.011-0.097,1.239-0.281c0.218-0.177,0.325-0.413,0.325-0.716c0-0.185-0.052-0.361-0.159-0.51
		c-0.107-0.154-0.251-0.265-0.439-0.339c-0.188-0.074-0.535-0.111-1.052-0.111h-1.184V96.861z"/>
</g>
</svg>
